<?xml version="1.0" standalone="no"?>
<!DOCTYPE svg PUBLIC "-//W3C//DTD SVG 20010904//EN"
 "http://www.w3.org/TR/2001/REC-SVG-20010904/DTD/svg10.dtd">
<svg version="1.0" xmlns="http://www.w3.org/2000/svg"
 width="720.000000pt" height="540.000000pt" viewBox="0 0 720.000000 540.000000"
 preserveAspectRatio="xMidYMid meet">

<g transform="translate(0.000000,540.000000) scale(0.100000,-0.100000)"
fill="#000000" stroke="none">
<path d="M5350 3414 c0 -116 0 -116 -22 -109 -46 14 -127 17 -160 6 -52 -17
-115 -76 -145 -135 -63 -125 -12 -295 107 -356 52 -26 104 -32 152 -18 24 6
76 11 116 9 l72 -3 0 361 0 361 -60 0 -60 0 0 -116z m-35 -218 l35 -15 0 -120
0 -120 -30 -16 c-71 -36 -150 -9 -182 62 -35 79 -12 162 55 203 38 24 75 25
122 6z"/>
<path d="M2255 3316 c-231 -45 -407 -180 -510 -391 -100 -203 -99 -415 2 -624
38 -79 59 -108 131 -180 97 -96 166 -141 271 -176 196 -67 415 -45 589 57 32
18 96 72 144 119 72 72 93 101 131 180 101 209 102 424 3 624 -76 153 -175
254 -321 325 -44 22 -107 47 -140 55 -87 22 -218 27 -300 11z m-256 -922 c36
-52 111 -116 172 -145 212 -103 471 -37 606 155 19 27 21 28 56 17 21 -7 37
-15 37 -17 0 -16 -67 -98 -119 -146 -99 -93 -219 -138 -363 -138 -137 0 -246
35 -345 112 -49 37 -143 148 -143 168 0 8 44 28 65 29 6 1 21 -15 34 -35z"/>
<path d="M3422 3295 c-63 -33 -102 -85 -109 -149 -7 -60 10 -105 56 -150 38
-38 39 -38 23 -66 -15 -26 -15 -30 1 -48 17 -19 17 -20 -12 -31 -92 -39 -115
-155 -44 -224 40 -38 104 -57 191 -57 96 0 147 16 194 61 34 32 38 41 38 85 0
30 -7 61 -19 80 -21 35 -85 68 -151 79 -67 10 -80 15 -80 30 0 8 18 19 43 25
71 17 128 51 156 94 22 34 26 50 25 113 0 64 2 73 18 73 15 0 18 8 18 50 l0
50 -67 0 c-38 0 -104 3 -148 6 -73 5 -84 3 -133 -21z m163 -110 c54 -53 16
-145 -60 -145 -74 0 -111 84 -64 144 28 36 89 37 124 1z m36 -431 c24 -22 24
-39 -1 -64 -16 -16 -33 -20 -90 -20 -57 0 -74 4 -90 20 -11 11 -20 26 -20 33
0 17 29 43 55 50 37 11 127 -1 146 -19z"/>
<path d="M3995 3308 c-135 -48 -209 -190 -170 -325 31 -105 146 -193 255 -193
109 0 224 88 255 193 39 135 -33 277 -164 322 -51 17 -132 18 -176 3z m162
-125 c31 -20 63 -83 63 -123 0 -45 -23 -92 -59 -123 -26 -22 -43 -27 -83 -27
-45 0 -54 4 -88 38 -46 45 -58 95 -40 155 13 45 58 93 93 100 33 7 87 -2 114
-20z"/>
<path d="M4583 3307 c-104 -39 -176 -136 -177 -242 -1 -85 25 -145 86 -200
202 -182 509 9 434 270 -40 137 -209 221 -343 172z m164 -124 c31 -20 63 -83
63 -123 0 -45 -23 -92 -61 -124 -29 -25 -39 -28 -86 -24 -108 9 -161 110 -113
216 34 74 128 100 197 55z"/>
<path d="M3943 2695 c-18 -8 -33 -10 -33 -5 0 6 -23 10 -50 10 l-50 0 2 -182
3 -183 45 0 45 0 5 135 5 135 28 13 c16 8 38 11 50 8 50 -13 52 -18 57 -158
l5 -133 48 -3 49 -3 -4 145 c-3 127 -5 148 -24 173 -42 57 -116 77 -181 48z"/>
<path d="M4315 2691 c-145 -65 -150 -277 -9 -347 55 -27 146 -25 203 5 l44 23
-29 29 c-29 28 -29 28 -73 13 -24 -8 -56 -12 -72 -9 -27 6 -79 50 -79 66 0 5
65 9 145 9 l145 0 0 39 c0 138 -148 230 -275 172z m120 -75 c29 -12 55 -41 55
-60 0 -3 -43 -6 -95 -6 -52 0 -95 3 -95 8 1 15 36 52 60 61 34 13 36 13 75 -3z"/>
<path d="M5260 2692 c-45 -24 -76 -78 -66 -117 10 -38 53 -77 112 -97 71 -26
81 -34 68 -55 -16 -26 -50 -27 -91 -3 l-36 21 -25 -24 c-32 -32 -25 -49 30
-76 53 -25 94 -27 147 -5 49 19 71 51 71 102 0 51 -32 83 -113 114 -40 16 -63
30 -65 42 -8 38 59 49 100 16 l25 -19 27 28 26 27 -22 21 c-49 46 -129 56
-188 25z"/>
<path d="M4622 2688 c3 -7 31 -91 63 -186 l57 -173 41 3 40 3 35 105 35 105
36 -108 36 -108 40 3 40 3 57 165 c31 91 57 173 57 183 1 15 -6 18 -46 15
l-47 -3 -30 -102 c-16 -56 -32 -101 -36 -98 -4 2 -20 49 -36 105 l-29 100 -42
0 -42 0 -32 -105 c-18 -58 -35 -102 -39 -98 -4 5 -19 52 -35 106 l-28 97 -49
0 c-36 0 -49 -4 -46 -12z"/>
<path d="M3359 2177 c-19 -12 -42 -38 -51 -57 -61 -121 58 -264 171 -206 66
35 60 68 -6 35 -48 -23 -81 -18 -116 17 -57 57 -37 168 34 193 23 8 41 7 72
-4 54 -19 71 -3 26 24 -44 27 -88 26 -130 -2z"/>
<path d="M3642 2048 c3 -152 19 -192 28 -71 l5 68 75 0 75 0 3 -67 c2 -52 6
-68 17 -68 12 0 15 24 15 140 0 118 -2 140 -15 140 -12 0 -15 -13 -15 -55 l0
-55 -80 0 -80 0 0 55 c0 43 -3 55 -15 55 -13 0 -15 -20 -13 -142z"/>
<path d="M4065 2173 c-50 -128 -94 -257 -89 -264 9 -16 32 9 39 42 6 28 8 29
71 29 65 0 65 0 79 -34 8 -19 19 -37 24 -40 25 -16 17 23 -30 148 -40 104 -56
136 -69 136 -10 0 -21 -8 -25 -17z m50 -85 c10 -29 20 -59 23 -65 3 -9 -11
-13 -48 -13 -38 0 -51 4 -48 13 3 6 13 36 22 65 10 28 21 52 25 52 4 0 15 -24
26 -52z"/>
<path d="M4322 2048 c4 -175 21 -192 28 -28 l5 115 80 -115 c44 -63 85 -114
90 -114 6 -1 11 55 13 142 2 121 0 142 -12 142 -13 0 -16 -20 -18 -110 l-3
-109 -75 109 c-104 153 -111 150 -108 -32z"/>
<path d="M4682 2048 c4 -175 21 -192 28 -28 l5 115 78 -112 c43 -62 85 -113
93 -113 11 0 14 25 14 140 0 118 -2 140 -15 140 -12 0 -15 -19 -15 -112 l0
-112 -77 112 c-108 154 -114 153 -111 -30z"/>
<path d="M5040 2050 l0 -140 86 0 c64 0 85 3 82 13 -3 7 -29 13 -72 15 l-67 3
3 47 3 47 53 3 c36 2 52 7 52 17 0 10 -16 15 -52 17 l-53 3 -3 42 -3 42 67 3
c43 2 69 8 72 16 3 9 -18 12 -82 12 l-86 0 0 -140z"/>
<path d="M5330 2050 l0 -141 73 3 c85 4 93 22 12 26 l-55 3 0 124 c0 104 -2
125 -15 125 -13 0 -15 -22 -15 -140z"/>
</g>
</svg>
